<?xml version="1.0" standalone="no"?><!DOCTYPE svg PUBLIC "-//W3C//DTD SVG 1.1//EN" "http://www.w3.org/Graphics/SVG/1.1/DTD/svg11.dtd"><svg t="1780881357498" class="icon" viewBox="0 0 1024 1024" version="1.1" xmlns="http://www.w3.org/2000/svg" p-id="1834" xmlns:xlink="http://www.w3.org/1999/xlink" width="48" height="48"><path d="M878.76326533 829.70260859L167.18137315 829.70260859 118.16568388 829.70260859 118.16568388 780.59698174l0-515.3392626c0-13.58049375 10.97231924-24.55281299 24.55281299-24.55281299 13.58049375 0 24.55281299 10.97231924 24.552813 24.55281299l0 515.3392626 711.58189306 0c13.58049375 0 24.55281299 10.97231924 24.55281299 24.55281299C903.31607832 818.73028847 892.34375908 829.70260859 878.76326533 829.70260859L878.76326533 829.70260859zM805.19476396 731.49135576l-49.10562597 0c-27.0710499 0-49.10562597-21.94463848-49.10562598-49.10562597L706.98351113 388.02178496c0-27.0710499 21.94463848-49.10562597 49.10562598-49.10562598l49.10562597 0c27.0710499 0 49.10562597 21.94463848 49.10562598 49.10562599l0 294.45388241C854.30038994 709.54671729 832.26581386 731.49135576 805.19476396 731.49135576L805.19476396 731.49135576zM559.84650752 731.49135576l-49.10562598 0c-27.0710499 0-49.10562597-21.94463848-49.10562597-49.10562597L461.63525557 240.79484375c0-27.0710499 21.94463848-49.10562597 49.10562597-49.10562597l49.10562598 0c27.0710499 0 49.10562597 21.94463848 49.10562597 49.10562597l0 441.68082364C608.86219678 709.54671729 586.91755742 731.49135576 559.84650752 731.49135576L559.84650752 731.49135576zM314.40831435 731.49135576l-49.10562597 0c-27.0710499 0-49.10562597-21.94463848-49.10562598-49.10562597L216.1970624 486.1431002c0-27.0710499 21.94463848-49.10562597 49.10562598-49.10562598l49.10562597 0c27.0710499 0 49.10562597 21.94463848 49.10562598 49.10562597l0 196.33256719C363.51394033 709.54671729 341.56930185 731.49135576 314.40831435 731.49135576L314.40831435 731.49135576z" fill="#2c2c2c" p-id="1835"></path></svg>