<?xml version="1.0" standalone="no"?><!DOCTYPE svg PUBLIC "-//W3C//DTD SVG 1.1//EN" "http://www.w3.org/Graphics/SVG/1.1/DTD/svg11.dtd"><svg t="1780881395330" class="icon" viewBox="0 0 1024 1024" version="1.1" xmlns="http://www.w3.org/2000/svg" p-id="3293" xmlns:xlink="http://www.w3.org/1999/xlink" width="48" height="48"><path d="M884.30000029 497.2625c-7.57500029-18.29999971-23.81249971-22.68749971-34.80000029-23.7375V361.99999971c0-41.36249971-33.6375-74.99999971-74.99999971-74.99999971h-225V234.87499971c11.43749971-10.27500029 18.74999971-25.04999971 18.74999971-41.625a56.25 56.25 0 0 0-112.5 0c0 16.57500029 7.3125 31.34999971 18.74999971 41.625V287H249.49999971c-41.36249971 0-74.99999971 33.6375-74.99999971 74.99999971v112.3875l-3.07500029 0.225A37.50000029 37.50000029 0 0 0 136.62500029 512v74.99999971a37.50000029 37.50000029 0 0 0 37.49999942 37.50000029H174.5v187.49999971c0 41.36249971 33.6375 74.99999971 74.99999971 75.00000058h525.00000058c41.36249971 0 74.99999971-33.6375 74.99999971-75.00000058v-187.49999971a37.50000029 37.50000029 0 0 0 37.50000029-37.50000029v-72.675a37.72500029 37.72500029 0 0 0-2.7-17.06249971zM249.49999971 811.99999971V361.99999971h525.00000058l0.03749942 149.85L774.50000029 512v74.99999971l0.03749942 0.18750058 0.03750029 224.81249942H249.49999971z" fill="#2c2c2c" p-id="3294"></path><path d="M324.50000029 512a74.99999971 56.25 90 1 0 112.5 0 74.99999971 56.25 90 1 0-112.5 0Z" fill="#2c2c2c" p-id="3295"></path><path d="M586.99999971 512a74.99999971 56.25 90 1 0 112.5 0 74.99999971 56.25 90 1 0-112.5 0Z" fill="#2c2c2c" p-id="3296"></path><path d="M361.99999971 662.00000029h300.00000058v74.99999971H361.99999971z" fill="#2c2c2c" p-id="3297"></path></svg>