<?xml version="1.0" standalone="no"?><!DOCTYPE svg PUBLIC "-//W3C//DTD SVG 1.1//EN" "http://www.w3.org/Graphics/SVG/1.1/DTD/svg11.dtd"><svg t="1780881387142" class="icon" viewBox="0 0 1024 1024" version="1.1" xmlns="http://www.w3.org/2000/svg" p-id="2965" xmlns:xlink="http://www.w3.org/1999/xlink" width="48" height="48"><path d="M881.140625 298.7421875l-369.140625-158.203125-369.140625 158.203125v451.03710938l369.140625 157.14843749 31.87792969-13.57910156h6.75v-2.87402343L881.140625 749.80566406V298.7421875z m-369.140625 134.65722656l-93.55078125-39.81445312 262.80175781-121.2890625c0.60644531-0.29003906 1.00195313-0.81738281 1.58203125-1.16015625l104.8359375 44.9296875L512 433.39941406z m106.04882813-190.02832031l-265.06933594 122.34375-116.6484375-49.67578125L512 197.9140625l106.04882813 45.45703125zM195.59375 356.01171875l105.46875 44.90332031V564.734375a26.3671875 26.3671875 0 1 0 52.734375 0v-141.328125l0.05273438-0.02636719 144.04394531 61.33007813v358.91015625L195.59375 714.921875V356.01171875z m355.03417969 477.16699219V474.26855469L828.40625 356.01171875v358.93652344l-277.77832031 118.23046875z" fill="#2c2c2c" p-id="2966"></path></svg>