<?xml version="1.0" standalone="no"?><!DOCTYPE svg PUBLIC "-//W3C//DTD SVG 1.1//EN" "http://www.w3.org/Graphics/SVG/1.1/DTD/svg11.dtd"><svg t="1780881371748" class="icon" viewBox="0 0 1024 1024" version="1.1" xmlns="http://www.w3.org/2000/svg" p-id="2312" xmlns:xlink="http://www.w3.org/1999/xlink" width="48" height="48"><path d="M512 905.75C295.4375 905.75 118.25 728.5625 118.25 512S295.4375 118.25 512 118.25s393.75 177.1875 393.75 393.75-177.1875 393.75-393.75 393.75z m0-731.25c-185.625 0-337.5 151.875-337.5 337.5s151.875 337.5 337.5 337.5 337.5-151.875 337.5-337.5-151.875-337.5-337.5-337.5z m0 590.625c-15.46875 0-28.125-12.65625-28.125-28.125V483.875c0-15.46875 12.65625-28.125 28.125-28.125s28.125 12.65625 28.125 28.125v253.125c0 15.46875-12.65625 28.125-28.125 28.125z m140.625-112.5H371.375c-15.46875 0-28.125-12.65625-28.125-28.125s12.65625-28.125 28.125-28.125h281.25c15.46875 0 28.125 12.65625 28.125 28.125s-12.65625 28.125-28.125 28.125z m0-140.625H371.375c-15.46875 0-28.125-12.65625-28.125-28.125s12.65625-28.125 28.125-28.125h281.25c15.46875 0 28.125 12.65625 28.125 28.125s-12.65625 28.125-28.125 28.125z m-140.625 0c-7.03125 0-14.0625-2.8125-19.6875-8.4375L353.09375 364.34375c-11.25-11.25-11.25-28.125 0-39.375 11.25-11.25 28.125-11.25 39.375 0l139.21875 139.21875c11.25 11.25 11.25 28.125 0 39.375-5.625 5.625-12.65625 8.4375-19.6875 8.4375z m0 0c-7.03125 0-14.0625-2.8125-19.6875-8.4375-11.25-11.25-11.25-28.125 0-39.375L631.53125 324.96875c11.25-11.25 28.125-11.25 39.375 0 11.25 11.25 11.25 28.125 0 39.375L531.6875 503.5625C526.0625 509.1875 519.03125 512 512 512z" fill="#2c2c2c" p-id="2313"></path></svg>