<?xml version="1.0" standalone="no"?><!DOCTYPE svg PUBLIC "-//W3C//DTD SVG 1.1//EN" "http://www.w3.org/Graphics/SVG/1.1/DTD/svg11.dtd"><svg t="1780879005949" class="icon" viewBox="0 0 1303 1024" version="1.1" xmlns="http://www.w3.org/2000/svg" p-id="10950" xmlns:xlink="http://www.w3.org/1999/xlink" width="61.078125" height="48"><path d="M139.610092 315.658417h1017.617957a139.610092 139.610092 0 0 1 139.610091 139.610092v104.707568a139.610092 139.610092 0 0 1-139.610091 139.610092H139.610092a139.610092 139.610092 0 0 1-139.610092-139.610092v-104.707568a139.610092 139.610092 0 0 1 139.610092-139.610092z" fill="#515151" p-id="10951" class=""></path><path d="M76.78555 0m465.366972 0l195.454128 0q465.366972 0 465.366972 465.366972l0 93.073394q0 465.366972-465.366972 465.366972l-195.454128 0q-465.366972 0-465.366972-465.366972l0-93.073394q0-465.366972 465.366972-465.366972Z" fill="#7dc5eb" p-id="10952" class=""></path><path d="M196.245252 298.625986m158.783211 0l569.748783 0q158.783211 0 158.783211 158.783211l0-0.046537q0 158.783211-158.783211 158.783211l-569.748783 0q-158.783211 0-158.783211-158.783211l0 0.046537q0-158.783211 158.783211-158.783211Z" fill="#515151" p-id="10953" class=""></path><path d="M392.443967 375.411536m42.674152 0l-0.046537 0q42.674151 0 42.674151 42.674152l0 61.56805q0 42.674151-42.674151 42.674151l0.046537 0q-42.674151 0-42.674152-42.674151l0-61.56805q0-42.674151 42.674152-42.674152Z" fill="#e6e6e6" p-id="10954" class="selected"></path><path d="M784.934471 375.411536m42.674152 0l-0.046537 0q42.674151 0 42.674151 42.674152l0 61.56805q0 42.674151-42.674151 42.674151l0.046537 0q-42.674151 0-42.674152-42.674151l0-61.56805q0-42.674151 42.674152-42.674152Z" fill="#e6e6e6" p-id="10955" class="selected"></path><path d="M528.982637 733.744105m34.111399 0l162.133853 0q34.111399 0 34.111399 34.111399l0 0.046536q0 34.111399-34.111399 34.111399l-162.133853 0q-34.111399 0-34.111399-34.111399l0-0.046536q0-34.111399 34.111399-34.111399Z" fill="#515151" p-id="10956" class=""></path></svg>