<?xml version="1.0" standalone="no"?><!DOCTYPE svg PUBLIC "-//W3C//DTD SVG 1.1//EN" "http://www.w3.org/Graphics/SVG/1.1/DTD/svg11.dtd"><svg t="1780881352082" class="icon" viewBox="0 0 1024 1024" version="1.1" xmlns="http://www.w3.org/2000/svg" p-id="1674" xmlns:xlink="http://www.w3.org/1999/xlink" width="48" height="48"><path d="M765.00768991 622.37498239l-51.85859546 0 0 51.9100329 51.85859546 0L765.00768991 622.37498239zM765.00768991 726.09300305l-51.85859546 0 0 51.9100329 51.85859546 0L765.00768991 726.09300305zM609.43024487 518.65613199l-51.85942519 0 0 51.91086182 51.85942519 0L609.43024487 518.65613199zM609.43024487 155.53977158L401.9950333 155.53977158l0 51.8594252 207.43521157 0L609.43024487 155.53977158zM324.40874033 258.57500568c14.23066608 0 25.67626008-15.44773508 25.67626007-34.489434L350.0850004 138.11917267c0-18.99109121-11.44559399-34.43799655-25.67626007-34.43799655-14.12862177 0-25.62482263 15.44690616-25.62482263 34.43799654l0 85.96722877C298.7839177 243.12809952 310.28011856 258.57500568 324.40874033 258.57500568M687.42554565 258.57500568c14.482874 0 26.22879438-15.44773508 26.22879437-34.489434L713.65434002 138.11917267c0-18.99109121-11.74592038-34.43799655-26.22879437-34.43799655-14.48702271 0-26.233772 15.44690616-26.23377199 34.43799654l0 85.96722877C661.19177283 243.12809952 672.93852295 258.57500568 687.42554565 258.57500568M609.43024487 622.37498239l-51.85942519 0 0 51.9100329 51.85942519 0L609.43024487 622.37498239zM765.00768991 518.65613199l-51.85859546 0 0 51.91086182 51.85859546 0L765.00768991 518.65613199zM298.27618289 726.09300305l-51.86025494 0 0 51.95898111 51.86025494 0L298.27618289 726.09300305zM298.27618289 622.37498239l-51.86025494 0 0 51.9100329 51.86025494 0L298.27618289 622.37498239zM868.72571057 155.53977158L765.00768991 155.53977158l0 51.8594252 103.71885041 0 0 155.57910451L142.69873785 362.97830129 142.69873785 207.39919678l103.71802066-1e-8L246.41675851 155.53977158 142.69873785 155.53977158c-53.78168051 0-51.8594252 53.20176883-51.8594252 51.8594252l0 674.17003674c0 50.49136285 49.93633933 51.8594252 51.85942521 51.8594252l726.02780246 0c47.30143086 0 51.85859546-49.93385093 51.85859545-51.8594252L920.58513577 207.39919678C920.58430603 203.88072961 919.21873291 155.53977158 868.72571057 155.53977158M868.72571057 881.56923352L142.69873785 881.56923352 142.69873785 414.8377265l726.02780247 1e-8L868.72654032 881.56923352zM609.43024487 726.09300305l-51.85942519 0 0 51.95898111 51.85942519 0L609.43024487 726.09300305zM453.85528824 622.37498239l-51.86025494 0 0 51.9100329 51.86025494 0L453.85528824 622.37498239zM453.85528824 518.65613199l-51.86025494 0 0 51.91086182 51.86025494 0L453.85528824 518.65613199zM453.85528824 726.09300305l-51.86025494 0 0 51.95898111 51.86025494 0L453.85528824 726.09300305zM298.27618289 518.65613199l-51.86025494 0 0 51.91086182 51.86025494 0L298.27618289 518.65613199z" fill="#2c2c2c" p-id="1675"></path></svg>