<?xml version="1.0" standalone="no"?><!DOCTYPE svg PUBLIC "-//W3C//DTD SVG 1.1//EN" "http://www.w3.org/Graphics/SVG/1.1/DTD/svg11.dtd"><svg t="1780881399325" class="icon" viewBox="0 0 1024 1024" version="1.1" xmlns="http://www.w3.org/2000/svg" p-id="3460" xmlns:xlink="http://www.w3.org/1999/xlink" width="48" height="48"><path d="M832.21698727 145.95635792a37.85229866 37.85229866 0 0 1 20.71261154 1.39810133c0.31068918 0.20712653 0.62137837 0.31068918 1.03563142 0.46603377 1.34631939 0.46603378 2.64085808 1.03563022 3.93539554 1.70879053 0.20712653 0.20712653 0.51781571 0.31068918 0.72494224 0.46603377 1.34631939 0.72494102 2.58907614 1.55344592 3.83183288 2.38195083l0.93206756 0.6731603c2.79620267 2.1748243 5.33349808 4.66033778 7.45654044 7.45654045l-3.41758104-3.93539675a39.04327468 39.04327468 0 0 1 6.73159942 8.95820444l0.41425184 0.88028682c4.60855584 8.80285984 5.85131259 19.57341867 2.07126164 30.44754015l1.1909748-4.24608593a38.83614815 38.83614815 0 0 1-0.62137837 2.33016889l-0.62137836 1.91591704-229.54752592 655.91665066a38.83614815 38.83614815 0 0 1-72.1316729 2.95154725l-125.10417898-281.48440178-281.53618249-125.15595969c-30.96535586-13.77388681-30.34397749-57.27037273-0.51781571-70.73357156l3.46936296-1.39810134L827.14239644 147.45802311a41.73591347 41.73591347 0 0 1 4.71211971-1.3463206z m-85.12883674 185.89569661l-221.62495291 221.52138903 80.62384355 181.23535762L747.08815053 331.80027259z m-54.88842312-54.99198578L289.33941689 417.91295883l181.23535882 80.52027968 221.6249517-221.57316976z" fill="#2c2c2c" p-id="3461"></path></svg>