<?xml version="1.0" standalone="no"?><!DOCTYPE svg PUBLIC "-//W3C//DTD SVG 1.1//EN" "http://www.w3.org/Graphics/SVG/1.1/DTD/svg11.dtd"><svg t="1780881391137" class="icon" viewBox="0 0 1024 1024" version="1.1" xmlns="http://www.w3.org/2000/svg" p-id="3129" xmlns:xlink="http://www.w3.org/1999/xlink" width="48" height="48"><path d="M838.20088889 702.48296295c-12.97066667-19.34222222-27.53422222-37.54666667-43.46311111-54.272-36.29511111-38.22933333-78.62044445-68.26666667-125.83822223-89.31555555-11.60533333-5.12-23.43822222-9.78488889-35.38488888-13.65333333 51.65511111-37.77422222 85.21955555-98.87288889 85.21955555-167.59466667 0-114.46044445-93.07022222-207.53066667-207.53066667-207.53066667-114.46044445 0-207.53066667 93.07022222-207.53066666 207.53066667 0 69.632 34.47466667 131.29955555 87.15377778 168.96-10.46755555 3.64088889-20.93511111 7.73688889-31.17511112 12.288-47.21777778 21.04888889-89.54311111 51.08622222-125.83822222 89.31555555-17.18044445 18.09066667-32.88177778 37.888-46.53511111 58.93688889-17.29422222 26.624-19.79733333 59.73333333-6.48533333 88.51911111 13.19822222 28.78577778 39.82222222 48.35555555 71.22488889 52.56533333l1.93422222 0.22755556h1.93422222c16.72533333 0 34.70222222 0.11377778 53.70311111 0.11377778 141.88088889 0 336.32711111-1.47911111 461.25511112-3.52711112h1.70666666l1.59288889-0.22755555c31.744-4.096 58.59555555-23.89333333 71.79377778-53.02044445 12.97066667-29.35466667 10.24-62.69155555-7.73688889-89.31555555zM362.83733333 377.6474074c0-81.80622222 66.56-148.36622222 148.36622222-148.36622223s148.36622222 66.56 148.36622223 148.36622223-66.56 148.36622222-148.36622223 148.36622222-148.36622222-66.56-148.36622222-148.36622222z m428.94222222 389.5751111c-4.55111111 10.01244445-13.312 16.72533333-24.12088888 18.65955557-140.62933333 2.38933333-368.07111111 3.86844445-509.61066667 3.41333333-10.46755555-1.93422222-19.00088889-8.53333333-23.552-18.31822223-4.77866667-10.46755555-3.98222222-21.95911111 2.27555555-31.51644444 11.71911111-18.09066667 25.14488889-35.04355555 39.936-50.51733333 30.94755555-32.54044445 66.90133333-58.14044445 107.0648889-76.00355556 41.30133333-18.432 85.21955555-27.76177778 130.5031111-27.76177777s89.20177778 9.32977778 130.50311112 27.76177777c40.04977778 17.86311111 76.00355555 43.34933333 107.06488888 76.00355556 13.65333333 14.336 26.16888889 29.92355555 37.20533334 46.5351111 6.59911111 9.67111111 7.50933333 21.27644445 2.73066666 31.744z" fill="#2c2c2c" p-id="3130"></path></svg>